# xmcd CD database file
#
# Track frame offsets:
#	150
#	7969
#	28203
#	48257
#	71353
#	94782
#	124558
#	151081
#	172016
#	203716
#	226491
#	260717
#	279432
#	304596
#
# Disc length: 4346 seconds
#
# Revision: 0
# Processed by: cddbd v1.5.2PL0 Copyright (c) Steve Scherf et al.
# Submitted via: CDex 1.51
#
DISCID=b210f80e
DTITLE=Max Mutzke and Mono Punk - Max Mutzke LIVE
DYEAR=2013
DGENRE=Jazz
TTITLE0=Intro
TTITLE1=Telefon
TTITLE2=Marie
TTITLE3=Creep
TTITLE4=Weil ich dich liebe
TTITLE5=Me and Mrs. Jones
TTITLE6=Du und Ich
TTITLE7=Empire State Of Mind
TTITLE8=Durcheinander
TTITLE9=Can¥t Wait Until Tonight
TTITLE10=High On Your Love
TTITLE11=Sommerregen
TTITLE12=Schwarz auf Weiﬂ
TTITLE13=You Are So Beautiful 
EXTD=YEAR: 2013
EXTT0=
EXTT1=
EXTT2=
EXTT3=
EXTT4=
EXTT5=
EXTT6=
EXTT7=
EXTT8=
EXTT9=
EXTT10=
EXTT11=
EXTT12=
EXTT13=
PLAYORDER=
